:SAMPLES-PER-SECOND 30
:FULLY-SPECIFIED
:DEGREES
65
root  3.32335 34.5392 5.93411 173.942 49.7278 154.324
RightUpLeg  -1.91818 -12.2258 -1.68175
RightLeg  49.0361 -7.94127 -9.81605
RightFoot  13.9125 -4.47263 20.245
RightToes  2.32829e-010 0 -3.6325e-017
Spine  10.7684 6.77237 -10.3017
Spine1  10.636 8.92313 -9.7777
HEad  -20.5787 16.6963 -9.13859
LeftShoulder1  1.81453 -6.06236 -11.9528
LeftArm  11.8232 39.2291 -48.8975
LeftForeArm  15.2534 -64.3339 -22.8537
LeftHand  -4.0457 -5.64542 41.1153
RightShoulder  0.243426 -2.07363 9.62214
RightArm  -11.4083 7.17985 64.4934
RightForeArm  21.9546 71.0692 34.2569
RightHand  -2.42561 6.89 -22.9489
LeftUpLeg  -45.8861 13.8474 -20.5059
LeftLeg  53.5711 5.29995 8.15375
LeftFoot  -16.9729 -0.627389 -15.0599
LeftToes  -5.54824e-011 -8.71001e-011 8.3852e-012
66
root  5.33054 33.9818 5.73123 172.627 44.1835 153.345
RightUpLeg  -11.713 -10.2629 -3.21165
RightLeg  65.9032 -2.85873 -7.69818
RightFoot  18.4223 -4.87026 18.6172
RightToes  2.32829e-010 0 -3.6325e-017
Spine  12.3528 5.41216 -15.0238
Spine1  11.1231 6.20694 -8.16895
HEad  -18.1908 16.488 -7.93207
LeftShoulder1  1.87732 -4.36329 -17.1694
LeftArm  8.53617 21.9417 -52.3611
LeftForeArm  7.11698 -58.894 -18.3575
LeftHand  -3.92379 -5.14483 41.7099
RightShoulder  0.608477 -0.521461 13.499
RightArm  -12.8184 0.0196278 64.6659
RightForeArm  -0.0719577 53.1125 14.8209
RightHand  -2.66691 7.31334 -24.3468
LeftUpLeg  -39.7187 11.3998 -19.6994
LeftLeg  54.1776 5.01661 7.94925
LeftFoot  -22.2893 -1.00833 -11.8437
LeftToes  -5.54824e-011 -8.71001e-011 8.3852e-012
67
root  7.61836 33.4262 5.56696 172.261 38.688 153.897
RightUpLeg  -22.254 -5.58615 -6.11164
RightLeg  80.8721 -0.674245 -8.55133
RightFoot  12.8635 -3.32329 15.7732
RightToes  2.32829e-010 0 -3.6325e-017
Spine  13.0211 4.12148 -18.6639
Spine1  13.3643 3.79066 -6.44128
HEad  -17.1765 14.7377 -7.82418
LeftShoulder1  2.23814 -4.44688 -21.7515
LeftArm  6.83017 1.45396 -55.8561
LeftForeArm  2.58102 -54.5072 -15.6745
LeftHand  -4.0715 -5.19453 42.9358
RightShoulder  1.10171 1.25397 16.5728
RightArm  -13.1082 -6.81954 64.2013
RightForeArm  -8.18397 31.4567 8.28507
RightHand  -2.51099 6.92947 -23.6269
LeftUpLeg  -34.7958 8.70944 -16.4858
LeftLeg  54.7802 2.88383 4.91552
LeftFoot  -27.4834 -1.45296 -11.3239
LeftToes  -5.54824e-011 -8.71001e-011 8.3852e-012
68
root  10.1803 32.9812 5.39375 172.133 32.6375 156.44
RightUpLeg  -31.5666 -1.14389 -11.8168
RightLeg  90.3699 0.883445 -14.4848
RightFoot  5.088 -1.95069 13.762
RightToes  2.32829e-010 0 -3.6325e-017
Spine  13.4099 2.61939 -20.7218
Spine1  16.5945 0.891199 -3.76122
HEad  -16.3344 13.1913 -9.20818
LeftShoulder1  2.64567 -5.89553 -21.8966
LeftArm  6.21275 -18.7067 -61.2954
LeftForeArm  4.65552 -52.6117 -14.3993
LeftHand  -4.42736 -5.87296 43.8086
RightShoulder  1.48228 2.3795 18.777
RightArm  -20.9956 -15.2014 63.0248
RightForeArm  0.429757 11.1372 9.30143
RightHand  -2.09725 6.07001 -21.3122
LeftUpLeg  -29.9749 6.07591 -11.0005
LeftLeg  56.2189 0.258781 0.979667
LeftFoot  -30.013 -2.03294 -13.4175
LeftToes  -5.54824e-011 -8.71001e-011 8.3852e-012
69
root  12.9754 32.6881 5.11642 172.174 27.5221 160.569
RightUpLeg  -39.5003 2.41206 -19.5318
RightLeg  92.6456 1.92142 -19.8643
RightFoot  0.254962 -1.28302 12.5967
RightToes  2.32829e-010 0 -3.6325e-017
Spine  14.0176 0.633552 -23.0551
Spine1  17.7072 -3.73617 1.88439
HEad  -14.1786 15.8487 -12.8541
LeftShoulder1  2.15246 -5.35146 -17.4879
LeftArm  5.02636 -34.1704 -65.5387
LeftForeArm  11.1705 -54.0603 -14.7021
LeftHand  -4.53935 -6.51424 42.5985
RightShoulder  1.67148 2.89248 19.7653
RightArm  -37.4312 -27.0652 59.5168
RightForeArm  19.0218 -1.76076 8.55594
RightHand  -1.81534 5.27042 -19.8864
LeftUpLeg  -24.2447 3.20181 -3.15969
LeftLeg  56.381 -1.72199 -2.2065
LeftFoot  -31.2282 -2.83582 -17.1181
LeftToes  -5.54824e-011 -8.71001e-011 8.3852e-012
70
root  16.0638 32.6168 4.65703 173.261 24.8302 165.22
RightUpLeg  -45.5882 4.38499 -26.9442
RightLeg  87.4361 0.0604961 -21.5493
RightFoot  -2.18523 -0.935608 11.5627
RightToes  2.32829e-010 0 -3.6325e-017
Spine  14.1236 -1.7619 -26.7316
Spine1  15.7903 -9.43169 10.2529
HEad  -11.7972 23.0538 -17.5945
LeftShoulder1  1.05886 -1.9357 -12.359
LeftArm  -0.374653 -41.4787 -62.3256
LeftForeArm  16.2897 -56.7516 -15.907
LeftHand  -4.19071 -6.42734 39.8675
RightShoulder  1.76699 3.46667 18.928
RightArm  -40.8646 -41.2868 51.2879
RightForeArm  22.3405 -2.27105 5.77689
RightHand  -1.70933 4.63669 -19.8847
LeftUpLeg  -18.1883 -0.543904 6.00159
LeftLeg  52.6154 -3.43551 -4.28957
LeftFoot  -32.2659 -3.83107 -21.554
LeftToes  -5.54824e-011 -8.71001e-011 8.3852e-012
71
root  19.4616 32.7438 4.02188 175.573 22.6589 169.362
RightUpLeg  -46.6456 2.10265 -31.9699
RightLeg  75.0848 -4.51061 -20.1055
RightFoot  -2.64116 -1.05372 13.3771
RightToes  2.32829e-010 0 -3.6325e-017
Spine  12.8844 -4.30768 -29.9211
Spine1  13.4504 -14.1272 18.3262
HEad  -10.1276 29.895 -19.348
LeftShoulder1  0.380527 1.27551 -10.1791
LeftArm  -7.37358 -39.8048 -54.2522
LeftForeArm  17.6283 -58.5125 -17.0048
LeftHand  -3.71601 -5.60761 38.1603
RightShoulder  1.84749 4.30423 17.0666
RightArm  -37.6377 -53.4885 37.9103
RightForeArm  17.1879 1.76242 6.34194
RightHand  -1.65943 4.32691 -19.9117
LeftUpLeg  -12.8222 -5.70944 14.5569
LeftLeg  45.0336 -4.6041 -4.54542
LeftFoot  -30.9457 -4.35949 -25.9678
LeftToes  -5.54824e-011 -8.71001e-011 8.3852e-012
72
root  22.8843 33.044 3.41012 177.653 17.3622 172.303
RightUpLeg  -39.6247 -4.76431 -35.1401
RightLeg  56.4807 -9.8754 -16.0909
RightFoot  3.42437 -1.95498 15.3874
RightToes  2.32829e-010 0 -3.6325e-017
Spine  11.1434 -6.13874 -30.2359
Spine1  13.0286 -16.4612 22.6952
HEad  -8.3842 31.4715 -15.2615
LeftShoulder1  0.285069 2.03206 -11.9598
LeftArm  -6.41081 -34.0776 -53.3971
LeftForeArm  16.3123 -58.7858 -17.3483
LeftHand  -3.38488 -4.88858 37.2509
RightShoulder  1.94301 4.93488 16.3566
RightArm  -35.3234 -61.6728 29.2611
RightForeArm  9.00084 3.19073 5.75809
RightHand  -1.54862 3.95193 -19.3304
LeftUpLeg  -9.30265 -11.227 21.6665
LeftLeg  35.4612 -4.18467 -2.86099
LeftFoot  -23.7466 -3.17007 -29.9247
LeftToes  -5.54824e-011 -8.71001e-011 8.3852e-012
73
root  26.1246 33.2927 3.0342 178.965 8.40902 173.493
RightUpLeg  -25.7364 -11.3174 -39.5255
RightLeg  34.1709 -15.4653 -11.0393
RightFoot  16.0522 -3.47223 14.582
RightToes  2.32829e-010 0 -3.6325e-017
Spine  10.2217 -6.03313 -27.9816
Spine1  13.1637 -15.8296 22.6798
HEad  -8.36536 28.088 -8.67939
LeftShoulder1  0.584449 0.982691 -16.2978
LeftArm  2.01561 -27.8631 -58.8079
LeftForeArm  14.9145 -59.865 -18.3931
LeftHand  -3.13479 -4.78288 35.0187
RightShoulder  2.07893 5.08867 17.6456
RightArm  -43.4887 -67.0225 34.3194
RightForeArm  2.34724 2.11272 2.4873
RightHand  -1.42558 3.72625 -18.2845
LeftUpLeg  -10.1319 -12.8865 27.6496
LeftLeg  26.6745 -4.47242 -2.03984
LeftFoot  -11.2823 0.0831127 -32.9355
LeftToes  -5.54824e-011 -8.71001e-011 8.3852e-012
74
root  29.3907 33.069 2.9583 -178.514 -0.805149 173.215
RightUpLeg  -12.5515 -10.1851 -44.6533
RightLeg  16.7963 -22.1207 -7.88109
RightFoot  24.8801 -5.77315 17.9982
RightToes  2.32829e-010 0 -3.6325e-017
Spine  10.1404 -3.8843 -23.7357
Spine1  10.9069 -11.7144 18.4225
HEad  -12.6827 23.9199 -4.36495
LeftShoulder1  0.949963 -0.140421 -19.6485
LeftArm  13.5327 -20.3577 -64.1245
LeftForeArm  15.8501 -62.6571 -20.825
LeftHand  -2.85119 -5.13787 31.0133
RightShoulder  2.17259 5.0095 19.0871
RightArm  -53.1977 -67.0988 44.8335
RightForeArm  -2.7301 1.98131 0.642845
RightHand  -1.52585 4.10407 -18.7511
LeftUpLeg  -16.8928 -8.97625 31.8792
LeftLeg  21.0292 -8.56742 -3.30054
LeftFoot  0.74389 3.90285 -35.7399
LeftToes  -5.54824e-011 -8.71001e-011 8.3852e-012
75
root  32.5201 32.3884 3.26833 -174.444 -6.92808 172.88
RightUpLeg  -9.43036 -6.6287 -45.9779
RightLeg  15.6706 -23.6719 -8.63013
RightFoot  19.1549 -8.38055 31.3954
RightToes  2.32829e-010 0 -3.6325e-017
Spine  11.5273 -0.611959 -15.0392
Spine1  6.50872 -4.70703 7.73905
HEad  -19.6206 21.1732 -2.04369
LeftShoulder1  1.18466 -0.958295 -20.1118
LeftArm  23.7175 -15.6274 -67.446
LeftForeArm  17.923 -64.023 -22.0438
LeftHand  -2.52884 -5.56007 26.6736
RightShoulder  2.04866 4.71364 18.4451
RightArm  -51.4254 -60.7497 45.1868
RightForeArm  -4.67392 3.96026 1.8705
RightHand  -1.90962 4.84881 -21.656
LeftUpLeg  -27.2563 -6.20492 33.9891
LeftLeg  19.1049 -12.3499 -4.43323
LeftFoot  7.41942 6.72194 -39.5472
LeftToes  -5.54824e-011 -8.71001e-011 8.3852e-012
76
root  35.2582 31.5031 4.01917 -172.671 -9.44704 173.424
RightUpLeg  -15.1459 -11.1056 -44.8382
RightLeg  27.8995 -12.674 -6.91105
RightFoot  4.00544 -6.54107 45.6515
RightToes  2.32829e-010 0 -3.6325e-017
Spine  16.0496 1.75695 -2.8715
Spine1  3.47028 2.0204 -7.09756
HEad  -23.6387 20.5758 -0.397548
LeftShoulder1  1.54933 -2.18363 -20.7793
LeftArm  28.6487 -15.1839 -68.3722
LeftForeArm  19.0348 -63.8549 -21.7244
LeftHand  -2.37876 -5.74873 24.753
RightShoulder  1.59583 3.79247 15.0729
RightArm  -45.8407 -45.3614 36.9958
RightForeArm  -2.9716 5.86812 2.5446
RightHand  -2.37003 5.81282 -24.5249
LeftUpLeg  -35.8765 -8.5981 36.0821
LeftLeg  20.3177 -10.3752 -3.87856
LeftFoot  8.81138 7.77916 -42.2809
LeftToes  -5.54824e-011 -8.71001e-011 8.3852e-012
77
root  37.6434 30.6417 5.11049 -175.368 -9.1218 174.353
RightUpLeg  -22.4574 -16.9323 -41.7723
RightLeg  41.6159 -1.49183 -2.00508
RightFoot  -5.45883 -2.75021 48.7517
RightToes  2.32829e-010 0 -3.6325e-017
Spine  22.1211 1.14793 6.15663
Spine1  5.24643 5.41474 -17.2036
HEad  -20.918 23.5533 -0.675996
LeftShoulder1  2.00501 -3.29195 -23.2405
LeftArm  25.9943 -15.2208 -65.1935
LeftForeArm  18.8673 -64.2398 -22.1814
LeftHand  -2.5395 -5.55261 26.782
RightShoulder  0.941642 2.28733 8.83903
RightArm  -46.2757 -17.1805 27.0642
RightForeArm  -0.193159 7.14261 1.24378
RightHand  -2.66525 6.40013 -26.1118
LeftUpLeg  -38.9823 -10.8325 36.3975
LeftLeg  24.1746 -4.14321 -1.67085
LeftFoot  8.21584 7.11429 -39.9728
LeftToes  -5.54824e-011 -8.71001e-011 8.3852e-012
78
root  39.533 30.2016 6.29712 -178.657 -6.70311 174.74
RightUpLeg  -28.9193 -15.0123 -38.6427
RightLeg  50.794 -0.957329 -1.72017
RightFoot  -7.06675 -1.85807 46.0977
RightToes  2.32829e-010 0 -3.6325e-017
Spine  26.1152 -2.12098 12.0816
Spine1  9.88889 6.20403 -22.4301
HEad  -14.1661 27.9165 -3.24907
LeftShoulder1  2.31572 -4.10605 -24.2449
LeftArm  19.0642 -13.6341 -59.5607
LeftForeArm  17.4029 -64.0372 -22.1482
LeftHand  -2.78804 -5.18788 30.2429
RightShoulder  0.328862 0.299498 0.182214
RightArm  -52.2481 18.6744 18.1697
RightForeArm  1.22916 11.327 1.27987
RightHand  -3.11231 6.99711 -28.8263
LeftUpLeg  -38.4189 -9.42467 33.6682
LeftLeg  28.5358 1.20316 1.02546
LeftFoot  7.09986 5.43182 -32.8343
LeftToes  -5.54824e-011 -8.71001e-011 8.3852e-012
79
root  40.994 30.1875 7.19824 -177.662 -3.69655 173.513
RightUpLeg  -35.9546 -10.7655 -36.9677
RightLeg  54.6947 -2.6097 -4.33789
RightFoot  -7.1436 -1.76379 44.5036
RightToes  2.32829e-010 0 -3.6325e-017
Spine  27.0326 -5.73792 17.527
Spine1  12.3009 6.41186 -28.0249
HEad  -9.86713 30.1236 -5.87892
LeftShoulder1  2.43014 -5.04939 -22.1176
LeftArm  14.718 -9.90321 -55.1665
LeftForeArm  17.23 -62.7797 -20.7876
LeftHand  -2.92155 -5.07758 31.9175
RightShoulder  0.0178129 -2.65213 -10.3899
RightArm  -61.155 46.6444 6.41715
RightForeArm  2.01326 20.652 4.30928
RightHand  -3.65221 7.91776 -31.4282
LeftUpLeg  -39.2822 -6.13506 30.5822
LeftLeg  31.3907 2.89733 2.24134
LeftFoot  5.88162 4.04627 -26.5803
LeftToes  -5.54824e-011 -8.71001e-011 8.3852e-012
